<svg id="SvgjsSvg1001" width="288" height="288" xmlns="http://www.w3.org/2000/svg" version="1.1" xmlns:xlink="http://www.w3.org/1999/xlink" xmlns:svgjs="http://svgjs.com/svgjs"><rect id="SvgjsRect1011" width="288" height="288" rx="0" ry="0" fill="#050015" transform="matrix(1,0,0,1,0,0)"></rect><defs id="SvgjsDefs1002"></defs><g id="SvgjsG1008" transform="matrix(0.79,0,0,0.79,30.234338722228998,30.239999098777773)"><svg xmlns="http://www.w3.org/2000/svg" width="288" height="288" version="1.0" viewBox="0 0 979 1280"><path fill="#ff3f00" d="M4622 12750 c-36 -42 -49 -50 -90 -56 -154 -21 -148 -18 -305 -162-116 -106 -146 -139 -151 -165 -7 -40 -50 -109 -102 -167 l-38 -42 -32 -246
c-26 -199 -38 -258 -59 -304 -14 -31 -31 -61 -38 -67 -7 -6 -107 -16 -223 -22
l-209 -12 -278 -141 -278 -141 -217 -220 c-222 -225 -450 -475 -589 -646 -43
-53 -115 -136 -159 -186 -104 -115 -226 -268 -287 -359 -26 -39 -99 -170 -163
-290 -137 -258 -196 -356 -241 -404 -51 -53 -92 -144 -102 -228 -6 -50 -16
-81 -29 -95 -63 -69 -183 -299 -266 -512 -78 -197 -204 -462 -234 -488 -19
-17 -26 -18 -77 -6 l-56 12 -38 -37 c-36 -36 -39 -43 -46 -114 -3 -43 -12
-120 -19 -172 l-13 -96 -125 -189 -125 -190 -17 -170 -16 -170 54 -252 c53
-247 55 -254 114 -366 77 -144 112 -200 196 -306 36 -46 66 -87 66 -90 0 -3
-43 -84 -95 -179 l-95 -173 0 -198 c0 -221 -7 -191 88 -392 43 -92 54 -104
156 -173 148 -101 235 -132 406 -146 132 -11 340 -47 515 -90 66 -16 208 -41
315 -55 107 -15 212 -31 233 -36 35 -9 37 -12 37 -49 0 -47 -35 -126 -61 -141
-10 -5 -47 -15 -81 -22 -61 -12 -64 -14 -102 -71 -35 -52 -42 -75 -67 -201
-23 -121 -33 -152 -63 -199 -48 -76 -78 -135 -156 -316 -37 -85 -104 -234
-148 -330 -44 -96 -92 -218 -107 -270 -17 -60 -45 -125 -75 -175 -115 -193
-250 -458 -280 -551 -22 -67 -69 -132 -221 -307 -116 -134 -148 -177 -153
-206 -3 -20 -28 -83 -56 -140 -42 -86 -50 -111 -50 -159 0 -49 4 -60 31 -88
l30 -31 -30 -121 c-17 -66 -31 -140 -31 -163 0 -75 30 -252 56 -336 l26 -83
91 -52 c74 -42 102 -53 149 -56 68 -5 211 19 356 59 125 35 177 60 219 105 18
19 40 34 51 34 10 0 69 -9 132 -20 108 -20 117 -20 224 -5 215 31 367 81 505
165 45 28 86 50 92 50 5 0 22 30 39 66 l30 66 -31 39 c-17 22 -40 41 -52 44
-12 2 -49 9 -82 15 -134 25 -235 70 -330 148 -69 56 -74 79 -31 141 14 20 133
147 265 282 132 136 255 271 274 300 19 30 53 106 77 169 24 63 70 176 103
250 32 74 79 190 103 257 23 67 90 229 148 360 58 131 113 268 123 306 10 37
21 67 25 67 13 0 320 -338 373 -412 29 -40 85 -143 125 -228 l72 -155 239
-242 c228 -230 242 -246 279 -325 43 -93 228 -638 264 -782 13 -51 52 -154 89
-232 70 -150 111 -268 105 -306 -2 -19 -20 -29 -108 -61 -58 -21 -110 -43
-116 -50 -18 -19 -33 -129 -27 -191 l6 -56 328 0 327 0 109 116 c94 100 110
123 126 174 l18 60 65 -69 c99 -106 121 -137 144 -205 l21 -63 232 -6 c287 -9
1891 -7 2274 2 155 3 285 10 290 14 15 15 -27 35 -171 83 -226 75 -405 143
-486 185 -130 68 -330 231 -435 354 -42 49 -49 65 -67 147 l-20 93 -176 178
c-132 132 -183 177 -201 177 -13 0 -49 19 -80 42 -89 68 -434 411 -567 566
-110 127 -144 159 -306 284 -249 192 -400 314 -483 394 -38 36 -80 73 -93 82
-34 22 -49 58 -66 155 -8 48 -17 91 -20 95 -2 4 -35 29 -73 55 -55 38 -83 49
-147 62 -87 16 -108 30 -138 90 -12 22 -42 72 -68 110 -68 102 -78 125 -86
200 -7 66 -8 68 -86 158 -114 131 -145 202 -99 227 16 8 34 2 88 -26 94 -50
254 -156 305 -202 65 -58 136 -98 210 -117 116 -31 171 -8 235 98 l38 62 -1
115 -2 115 -71 155 -72 155 -62 39 c-34 22 -161 100 -282 174 -234 142 -263
164 -301 227 -34 58 -84 184 -84 211 0 36 46 54 178 66 154 14 163 20 161 104
l-2 64 -48 35 c-27 19 -49 39 -49 43 0 4 21 28 46 52 59 59 87 104 79 130 -4
11 -53 66 -109 123 -128 127 -213 241 -277 371 -72 149 -91 232 -93 401 -1
233 60 436 167 552 37 40 42 51 48 112 7 68 52 199 88 257 31 51 104 72 289
85 146 10 199 17 422 54 47 8 140 15 208 15 67 0 211 7 320 16 260 21 322 16
497 -40 160 -52 225 -89 267 -155 41 -66 55 -122 83 -331 16 -120 35 -217 54
-275 31 -96 63 -240 82 -370 6 -43 25 -138 43 -210 30 -121 38 -140 113 -265
171 -287 263 -457 277 -513 5 -22 0 -35 -23 -65 l-30 -37 14 -65 c8 -36 14
-70 15 -75 0 -6 -34 -58 -75 -115 -75 -104 -77 -106 -163 -147 l-87 -42 -130
0 -131 -1 -67 -68 -68 -69 84 -76 c97 -88 83 -85 292 -63 l120 13 38 -25 c20
-14 37 -32 37 -41 0 -9 7 -182 16 -386 l16 -370 35 -65 c39 -72 95 -145 123
-160 16 -8 25 -1 62 50 24 33 45 59 48 60 3 0 23 -49 46 -108 40 -104 42 -108
90 -134 l49 -27 43 42 c40 40 42 43 42 103 0 62 0 62 -31 69 l-31 7 4 149 3
150 -37 11 c-36 11 -38 13 -38 55 0 39 2 43 24 43 18 0 27 -9 40 -42 24 -65
114 -209 184 -298 61 -77 65 -80 105 -80 23 0 47 4 52 8 9 6 35 77 35 94 0 3
-27 15 -60 27 -67 25 -62 14 -80 166 -12 111 -37 267 -46 290 -5 12 2 15 34
15 56 0 237 -92 257 -130 7 -14 34 -49 59 -77 l46 -51 40 15 c39 16 40 17 39
62 -1 43 -5 50 -60 100 l-59 54 -28 -26 c-16 -15 -30 -27 -33 -27 -2 0 -3 26
-1 59 l4 58 -105 154 -104 154 -16 205 c-20 248 -42 330 -114 413 -46 54 -70
93 -61 102 3 3 24 -2 48 -10 l43 -15 -19 22 c-10 13 -29 35 -42 49 -18 20 -37
80 -78 240 -50 200 -53 222 -54 335 0 119 1 122 25 138 23 15 25 20 18 73 l-6
56 69 -6 c38 -4 131 -9 206 -13 134 -7 138 -6 190 19 72 36 187 124 215 165
12 18 33 64 48 102 15 39 60 116 103 178 94 132 156 259 183 377 44 189 86
289 144 341 24 21 36 42 40 70 8 53 -11 84 -68 111 -52 25 -56 36 -32 103 8
23 15 60 15 81 0 32 -5 41 -29 53 -31 17 -51 59 -51 111 0 21 -9 40 -26 56
-37 35 -61 78 -69 127 -6 40 -8 42 -41 42 -31 0 -34 3 -34 29 0 47 -20 55
-144 56 -132 1 -158 10 -285 106 -85 63 -277 237 -385 347 l-59 60 12 94 c22
170 88 328 276 658 121 213 161 278 220 350 101 125 357 527 478 750 62 114
69 123 321 447 124 159 210 258 321 368 84 83 160 165 169 182 28 55 45 138
71 352 30 244 41 304 65 351 10 20 63 92 117 160 264 333 284 374 220 453 -33
41 -80 49 -148 23 -47 -18 -66 -32 -113 -91 -62 -77 -169 -175 -191 -175 -15
0 -38 63 -55 155 -20 101 -67 163 -116 153 -31 -6 -103 -117 -104 -160 0 -44
-33 -136 -60 -171 -18 -23 -25 -25 -80 -20 -83 6 -100 -5 -100 -66 0 -40 -3
-50 -20 -54 -32 -8 -25 -39 8 -37 15 1 32 2 38 1 19 -2 33 -114 39 -317 l6
-191 -130 -197 c-115 -172 -152 -218 -299 -374 -753 -796 -945 -1015 -1057
-1201 -21 -35 -62 -90 -91 -123 -58 -65 -221 -306 -328 -485 -37 -62 -92 -144
-123 -183 l-56 -70 -78 0 c-87 0 -62 -13 -259 141 -52 41 -153 113 -225 161
l-130 86 -161 32 -162 32 -113 -60 c-110 -58 -125 -62 -427 -136 -303 -73
-318 -76 -435 -76 l-122 0 -270 -90 c-148 -49 -275 -90 -282 -90 -9 0 -8 8 2
34 11 27 15 101 17 329 3 255 5 297 19 313 29 33 44 129 59 361 5 86 16 167
24 186 7 19 64 91 125 161 61 70 128 151 147 181 l36 53 105 -131 c183 -228
225 -264 358 -302 70 -21 143 -15 184 15 38 26 69 91 83 171 6 35 15 70 20 77
6 6 31 12 57 12 64 1 123 16 138 36 6 9 15 42 18 73 12 107 33 133 120 146 60
8 81 19 95 46 7 11 18 85 25 164 15 154 23 188 78 336 20 52 43 139 51 192 20
119 65 263 110 348 49 93 86 218 86 293 0 74 -4 79 -130 156 -98 61 -114 77
-175 185 l-46 80 -112 38 c-62 22 -166 65 -232 97 -66 32 -212 95 -324 139
-203 81 -203 81 -295 81 l-91 -1 -43 -49z m4691 -517 c8 -7 -21 -43 -35 -43
-12 0 -10 24 4 38 14 14 22 15 31 5z m-3653 -1387 c0 -14 -4 -28 -10 -31 -6
-4 -10 7 -10 24 0 17 5 31 10 31 6 0 10 -11 10 -24z m2165 -2994 c-8 -8 -35
20 -35 37 1 12 5 11 21 -8 11 -13 17 -26 14 -29z m-609 -3708 l-15 -29 -1 45
c0 41 1 43 16 28 14 -14 14 -18 0 -44z m-21 -643 c-12 -49 -25 -47 -25 3 0 43
2 47 16 35 10 -8 13 -21 9 -38z" transform="matrix(.1 0 0 -.1 0 1280)" class="color111119 svgShape"></path></svg></g></svg>